%
M48
M72
T01C0.0315
T02C0.0320
T03C0.0400
%
T01
X5201Y3801
X4801Y5501
X4501Y6601
X1901Y4701
X8301Y3301
X11301Y6201
X16001Y4201
X17001Y5201
X17401Y4201
X18501Y4701
X20201Y5301
X18601Y6501
X17301Y6901
X17101Y9101
X14901Y10201
X16901Y11701
X16201Y12701
X15401Y13701
X16001Y14501
X17101Y14101
X16801Y15601
X19101Y15101
X16901Y18301
X16101Y19601
X18401Y20501
X23801Y16501
X25401Y16401
X27401Y16101
X29101Y16001
X31201Y16501
X32301Y14701
X28801Y13901
X29601Y11401
X31001Y9901
X32601Y9801
X29601Y8401
X28301Y5901
X29401Y4201
X27101Y3801
X24501Y3001
X22601Y2101
X17401Y2601
X10201Y11701
X11601Y14701
X10401Y15801
X12001Y16401
X12801Y18301
X10901Y19301
X10601Y18401
X9201Y19801
X9601Y21401
X12401Y20701
X7801Y16801
X6701Y16801
X3101Y12101
X15901Y25601
X13201Y26301
X27001Y26301
X30301Y26601
X32501Y25601
X31801Y22401
X32801Y19401
X23801Y13801
X33301Y6701
T02
X24501Y6501
X24501Y5501
X24501Y7501
X24501Y8501
X24501Y9501
X24501Y10501
X24501Y11501
X24501Y12501
X21501Y12501
X21501Y11501
X21501Y10501
X21501Y9501
X21501Y8501
X21501Y7501
X21501Y6501
X21501Y5501
X21601Y17501
X21601Y18501
X21601Y19501
X21601Y20501
X21601Y21501
X21601Y22501
X21601Y23501
X21601Y24501
X24601Y24501
X24601Y23501
X24601Y22501
X24601Y21501
X24601Y20501
X24601Y19501
X24601Y18501
X24601Y17501
X27701Y17501
X27701Y18501
X27701Y19501
X27701Y20501
X27701Y21501
X27701Y22501
X27701Y23501
X27701Y24501
X30701Y24501
X30701Y23501
X30701Y22501
X30701Y21501
X30701Y20501
X30701Y19501
X30701Y18501
X30701Y17501
X7401Y18501
X7401Y19501
X7401Y20501
X7401Y21501
X7401Y22501
X7401Y23501
X7401Y24501
X7401Y25501
X4401Y25501
X4401Y24501
X4401Y23501
X4401Y22501
X4401Y21501
X4401Y20501
X4401Y19501
X4401Y18501
X4401Y15801
X4401Y14801
X4401Y13801
X4401Y12801
X4401Y11801
X4401Y10801
X4401Y9801
X4401Y8801
X7401Y8801
X7401Y9801
X7401Y10801
X7401Y11801
X7401Y12801
X7401Y13801
X7401Y14801
X7401Y15801
T03
X3601Y3801
X3601Y4801
X3601Y5801
X13401Y6201
X14401Y6201
X14401Y5201
X14401Y4201
X13401Y4201
X13401Y5201
X13401Y7201
X13401Y8201
X13401Y9201
X14401Y9201
X14401Y8201
X14401Y7201
X14401Y11701
X14401Y12701
X13401Y12701
X13401Y11701
X13401Y13701
X13401Y14701
X13401Y15701
X14401Y15701
X14401Y14701
X14401Y13701
X14401Y16701
X13401Y16701
X13401Y19201
X13401Y20201
X14401Y20201
X14401Y19201
X14401Y21201
X14401Y22201
X13401Y22201
X13401Y21201
X13401Y23201
X13401Y24201
X14401Y24201
X14401Y23201
X27601Y12601
X28601Y12601
X29601Y12601
X28601Y11401
X27601Y11401
X27601Y10401
X28601Y10401
X28601Y9401
X28601Y8401
X27601Y8401
X27601Y9401
X27601Y7201
X28601Y7201
X29601Y7201
X32301Y7701
X32301Y6701
X32301Y5701
X32301Y8701
X32301Y11201
X32301Y12201
X32301Y13201
M30
